<svg xmlns="http://www.w3.org/2000/svg" xmlns:xlink="http://www.w3.org/1999/xlink" width="190" height="34" viewBox="0 0 190 34">
  <defs>
    <polygon id="quantexa-logo-white-a" points=".211 .112 13.183 .112 13.183 24.114 .211 24.114"/>
    <polygon id="quantexa-logo-white-c" points=".172 .493 23.441 .493 23.441 18.532 .172 18.532"/>
    <polygon id="quantexa-logo-white-e" points="0 .258 23.201 .258 23.201 19.518 0 19.518"/>
  </defs>
  <g fill="none" fill-rule="evenodd">
    <g transform="translate(0 .427)">
      <path fill="#FEFEFE" d="M49.2632 18.6691302C49.2632 22.1759873 46.4674857 23.9288762 40.8760571 23.9288762L35.6678857 23.9288762C30.0314 23.9288762 27.2134286 22.1759873 27.2134286 18.6691302L27.2134286 6.96449524C27.2134286 6.02652698 27.6987429 5.55700317 28.6699143 5.55700317 29.6633429 5.55700317 30.1600571 6.02544762 30.1600571 6.96125714L30.1600571 18.6378286C30.1600571 20.3135429 31.8309714 21.1511302 35.1728 21.1511302L41.3711429 21.1511302C44.6228571 21.1511302 46.2487143 20.3383683 46.2487143 18.7123048L46.2487143 6.96125714C46.2487143 6.05027302 46.7622571 5.59424127 47.7893429 5.59424127 48.7713714 5.59424127 49.2632 6.05135238 49.2632 6.96449524L49.2632 18.6691302zM73.3453743 13.9650413L59.49926 13.9650413C57.1459743 13.9650413 55.9696029 14.7756444 55.9696029 16.3968508L55.9696029 18.8658984C55.9696029 20.3894222 57.2252314 21.1509143 59.7370314 21.1509143L69.7147457 21.1509143C72.1353457 21.1509143 73.3453743 19.9959937 73.3453743 17.6866921L73.3453743 13.9650413zM76.2246886 18.6430095C76.2246886 22.1671365 73.8757457 23.9286603 69.1794886 23.9286603L60.37326 23.9286603C55.4278314 23.9286603 52.9551171 22.2324381 52.9551171 18.839454L52.9551171 16.4616127C52.9551171 12.9450413 55.3713743 11.1872952 60.2038886 11.1872952L73.3117171 11.1872952C73.1081457 9.43386667 71.8888886 8.55688254 69.6534029 8.55688254L65.9950886 8.55688254C65.2725457 8.55688254 64.9115457 8.09491429 64.9115457 7.16881905 64.9115457 6.3172 65.2725457 5.89031111 65.9950886 5.89031111L69.1794886 5.89031111C73.8757457 5.89031111 76.2246886 7.6896127 76.2246886 11.2871365L76.2246886 18.6430095zM101.864429 22.6353111C101.864429 23.6218508 101.361743 24.1140413 100.357457 24.1140413 99.3520857 24.1140413 98.8499429 23.6202317 98.8499429 22.6326127L98.8499429 10.7795651C98.8499429 9.29813651 97.4868286 8.55715238 94.7606 8.55715238L87.2230286 8.55715238C84.4745429 8.55715238 83.1000286 9.29813651 83.1000286 10.7795651L83.1000286 22.6326127C83.1000286 23.6202317 82.5973429 24.1140413 81.5925143 24.1140413 80.5876857 24.1140413 80.0855429 23.6218508 80.0855429 22.6353111L80.0855429 10.8070889C80.0855429 7.52959683 82.7341429 5.89058095 88.0329714 5.89058095L93.8496857 5.89058095C99.1930286 5.89058095 101.864429 7.52959683 101.864429 10.8070889L101.864429 22.6353111z"/>
      <g transform="translate(103.686)">
        <mask id="quantexa-logo-white-b" fill="#fff">
          <use xlink:href="#quantexa-logo-white-a"/>
        </mask>
        <path fill="#FEFEFE" d="M5.93456857,8.55715238 L5.93456857,22.6326127 C5.93456857,23.6202317 5.44382571,24.1140413 4.46179714,24.1140413 C3.43416857,24.1140413 2.92008286,23.6202317 2.92008286,22.6326127 L2.92008286,8.55715238 L1.44839714,8.55715238 C0.622711429,8.55715238 0.210682857,8.09518413 0.210682857,7.16908889 C0.210682857,6.31693016 0.622711429,5.89058095 1.44839714,5.89058095 L2.92008286,5.89058095 L2.92008286,1.56610476 C2.92008286,0.596834921 3.44502571,0.1122 4.49599714,0.1122 C5.45468286,0.1122 5.93456857,0.596834921 5.93456857,1.56610476 L5.93456857,5.89058095 L11.9298829,5.89058095 C12.76534,5.89058095 13.18334,6.32934286 13.18334,7.20524762 C13.18334,8.10705714 12.76534,8.55715238 11.9298829,8.55715238 L5.93456857,8.55715238 Z" mask="url(#quantexa-logo-white-b)"/>
      </g>
      <path fill="#FEFEFE" d="M121.3397 13.7057778L137.496214 13.7057778 137.496214 11.0197778C137.496214 9.37860317 136.332871 8.55720635 134.007271 8.55720635L125.945843 8.55720635C122.8749 8.55720635 121.3397 9.42771429 121.3397 11.1687302L121.3397 13.7057778zM140.408643 15.0074921C140.408643 15.991873 139.956443 16.4835238 139.053671 16.4835238L121.3397 16.4835238 121.3397 18.7253651C121.3397 20.342254 122.8749 21.1506984 125.945843 21.1506984L129.231757 21.1506984C130.089471 21.1506984 130.518871 21.601873 130.518871 22.5020635 130.518871 23.4540635 130.089471 23.9289841 129.231757 23.9289841L126.724843 23.9289841C121.124729 23.9289841 118.325214 22.0686984 118.325214 18.3475873L118.325214 11.3980952C118.325214 7.72609524 121.091071 5.89063492 126.623329 5.89063492L133.397643 5.89063492C138.071643 5.89063492 140.408643 7.49025397 140.408643 10.6889524L140.408643 15.0074921zM153.584817 13.0021937L161.882931 6.07590794C162.198874 5.80444762 162.514817 5.66844762 162.831303 5.66844762 163.237903 5.66844762 163.581531 5.83466984 163.864903 6.16819365 164.146646 6.50171746 164.287789 6.87841587 164.287789 7.29774921 164.287789 7.7181619 164.08476 8.08838413 163.67816 8.40895556L155.887617 14.8910825 163.67816 21.447146C163.994103 21.719146 164.152617 22.0526698 164.152617 22.4471778 164.152617 22.8675905 164.022331 23.2620984 163.762846 23.6328603 163.50336 24.0030825 163.192303 24.1881937 162.831303 24.1881937 162.605474 24.1881937 162.345446 24.0521937 162.052303 23.7807333L153.584817 16.8172095 145.150989 23.7807333C144.924617 24.0273683 144.664589 24.1509556 144.371446 24.1509556 144.009903 24.1509556 143.699389 23.971781 143.440446 23.6139714 143.180417 23.2567016 143.051217 22.8675905 143.051217 22.4471778 143.051217 22.0769556 143.208646 21.7434317 143.525131 21.447146L151.281474 14.8910825 143.525131 8.40895556C143.322103 8.23679683 143.163589 8.07003492 143.051217 7.90920952 142.93776 7.74892381 142.892703 7.54492381 142.915503 7.29774921 142.915503 6.82930476 143.05556 6.45260635 143.338931 6.16819365 143.621217 5.88486032 143.953989 5.74238413 144.337789 5.74238413 144.473503 5.74238413 144.636903 5.76720952 144.829074 5.81632063 145.020703 5.86597143 145.184646 5.95232063 145.319817 6.07590794L153.584817 13.0021937z"/>
      <g transform="translate(166.114 5.397)">
        <mask id="quantexa-logo-white-d" fill="#fff">
          <use xlink:href="#quantexa-logo-white-c"/>
        </mask>
        <path fill="#FEFEFE" d="M20.5620171,8.56821587 L6.71590286,8.56821587 C4.36261714,8.56821587 3.18624571,9.37881905 3.18624571,11.0000254 L3.18624571,13.469073 C3.18624571,14.9925968 4.44187429,15.7540889 6.95367429,15.7540889 L16.9313886,15.7540889 C19.3519886,15.7540889 20.5620171,14.5991683 20.5620171,12.2898667 L20.5620171,8.56821587 Z M23.4413314,13.2461841 C23.4413314,16.7703111 21.0923886,18.5318349 16.3955886,18.5318349 L7.58990286,18.5318349 C2.64447429,18.5318349 0.17176,16.8356127 0.17176,13.4426286 L0.17176,11.0647873 C0.17176,7.54821587 2.58801714,5.79046984 7.41998857,5.79046984 L20.52836,5.79046984 C20.3247886,4.03704127 19.1055314,3.16005714 16.8700457,3.16005714 L13.2122743,3.16005714 C12.4891886,3.16005714 12.1281886,2.69808889 12.1281886,1.77199365 C12.1281886,0.920374603 12.4891886,0.493485714 13.2122743,0.493485714 L16.3955886,0.493485714 C21.0923886,0.493485714 23.4413314,2.2927873 23.4413314,5.89031111 L23.4413314,13.2461841 Z" mask="url(#quantexa-logo-white-d)"/>
      </g>
      <g transform="translate(0 4.317)">
        <mask id="quantexa-logo-white-f" fill="#fff">
          <use xlink:href="#quantexa-logo-white-e"/>
        </mask>
        <path fill="#FEFEFE" d="M14.9033829,0.257698413 L8.56932571,0.257698413 C2.85629714,0.257698413 -0.000217142857,2.24588889 -0.000217142857,6.22119048 L-0.000217142857,13.6661111 C-0.000217142857,17.5680159 2.82264,19.5184286 8.46781143,19.5184286 L11.4090114,19.5184286 L12.0197257,19.5184286 L16.3115543,19.5184286 L16.3115543,16.5922698 L12.0197257,16.5922698 L11.4090114,16.5922698 L8.09486857,16.5922698 C4.82089714,16.5922698 3.18418286,15.6170635 3.18418286,13.6661111 L3.18418286,6.22119048 C3.18418286,4.17147619 4.82089714,3.14661905 8.09486857,3.14661905 L15.4114971,3.14661905 C18.43684,3.14661905 19.9497829,4.07271429 19.9497829,5.92436508 L19.9497829,9.43392063 L19.9497829,10.6093492 L19.9497829,13.6396667 L23.2014971,13.6396667 L23.2014971,10.6093492 L23.2014971,9.43392063 L23.2014971,6.18395238 C23.2014971,2.23347619 20.4350971,0.257698413 14.9033829,0.257698413" mask="url(#quantexa-logo-white-f)"/>
      </g>
    </g>
    <path fill="#3BBFA4" d="M12.1188514,9.7738127 C10.8219657,11.1888603 9.33236571,12.4209556 7.69728,13.4296222 L0.125508571,1.28460635 C0.646651429,0.961336508 1.11893714,0.569526984 1.52879429,0.121590476 L12.1188514,9.7738127 Z" transform="translate(17.914 19.856)"/>
  </g>
</svg>